PathFileType	4	(X/Y/Z)	C:/Users/beibeiliu/ov580/test_trc/User3\sequence.42_training_dense_left.trc
DataRate	CameraRate	NumFrames	NumMarkers	Units	OrigDataRate	OrigDataStartFrame	OrigNumFrames
120	120	7	19	mm	120	1	86
Frame#	Time	ThumbCMC			ThumbMCP			ThumbIP			ThumbTip			IndexMCP			IndexPIP			IndexTip			MiddleMCP			MiddlePIP			MiddleTip			RingMCP			RingPIP			RingTip			PinkyMCP			PinkyPIP			PinkyTip			BackHand1			BackHand2			BackHand3	
		X0	Y0	Z0	X1	Y1	Z1	X2	Y2	Z2	X3	Y3	Z3	X4	Y4	Z4	X5	Y5	Z5	X6	Y6	Z6	X7	Y7	Z7	X8	Y8	Z8	X9	Y9	Z9	X10	Y10	Z10	X11	Y11	Z11	X12	Y12	Z12	X13	Y13	Z13	X14	Y14	Z14	X15	Y15	Z15	X16	Y16	Z16	X17	Y17	Z17	X18	Y18	Z18	
0	0	-216.267	-2.08474	0.673552	-208.544	-4.2549	-34.7395	-192.844	-19.3022	-60.6219	-167.974	-40.3081	-61.5054	-217.48	-55.5066	-55.789	-218.71	-64.5767	-80.0269	-217.362	-78.5113	-106.616	-204.374	-72.3108	-56.3194	-202.712	-85.1671	-81.647	-197.479	-95.6002	-111.465	-184.796	-71.1556	-53.6986	-170.82	-66.6127	-78.6091	-155.174	-36.1619	-76.6362	-159.452	-64.9823	-41.5855	-148.039	-51.5508	-59.0583	-143.593	-21.6819	-53.8939	-192.842	-64.3736	-1.35133	-191.752	-52.8265	32.0721	-218.613	-41.5872	7.19971	
1	0.00833333	-210.441	1.30922	-0.0261182	-207.802	-4.69065	-33.9513	-201.271	-26.5327	-54.0178	-188.238	-53.4149	-58.0095	-235.165	-48.2785	-53.6404	-240.249	-59.699	-79.0586	-242.697	-71.7721	-103.362	-230.722	-68.8128	-54.6259	-233.361	-79.592	-75.1974	-231.788	-94.9162	-106.34	-203.887	-76.7947	-47.9645	-185.909	-70.6246	-71.8783	-162.401	-43.7023	-58.9829	-186.271	-77.0706	-32.7908	-163.597	-67.5646	-53.4268	-148.894	-46.651	-46.669	-214.378	-62.5042	6.52983	-212.748	-50.7069	33.3899	-229.991	-29.6593	7.34002	
2	0.0166667	-200.527	6.10811	0.0917978	-200.537	-1.31363	-32.1796	-205.914	-27.3383	-57.8751	-203.977	-50.8943	-56.3966	-246.613	-27.7276	-59.3103	-252.794	-38.4193	-77.8813	-260.566	-44.5121	-102.29	-247.369	-52.7701	-50.7736	-254.234	-62.7496	-76.0034	-258.211	-74.6717	-105.375	-225.452	-64.3722	-47.24	-197.466	-69.5328	-67.2537	-173.659	-54.7467	-49.5809	-211.061	-79.0993	-32.2243	-185.988	-78.672	-47.9899	-165.702	-62.0832	-40.697	-233.968	-50.9364	6.89081	-225.392	-38.3978	32.7137	-231.62	-14.1555	9.31007	
3	0.025	-189.577	10.2859	-5.90993	-191.464	0.498984	-34.4109	-202.397	-19.4982	-57.107	-210.248	-42.5078	-59.0489	-241.373	-5.55135	-60.9797	-251.563	-6.94285	-85.9496	-259.8	-16.3542	-103.367	-251.045	-24.4928	-54.5215	-262.184	-34.7383	-82.0639	-268.127	-46.7821	-109.784	-237.614	-46.8845	-52.7354	-214.873	-63.2997	-68.5874	-188.507	-58.8336	-54.5644	-229.848	-61.2192	-34.0436	-207.808	-71.9442	-51.333	-180.041	-69.2342	-42.8271	-241.847	-29.3123	0.181459	-232.37	-25.4069	30.3887	-225.861	3.5142	3.70402	
4	0.0333333	-176.004	8.32394	-0.583683	-179.288	4.66698	-36.1572	-191.385	-9.27074	-60.763	-210.172	-31.5677	-63.3143	-223.17	17.0921	-61.9089	-232.538	16.4543	-84.2256	-241.924	16.3599	-108.223	-243.915	1.19256	-64.0064	-252.509	-4.84237	-90.377	-259.636	-12.3168	-115.365	-239.018	-29.4463	-54.5702	-219.274	-47.5849	-74.4021	-193.79	-52.7714	-53.9978	-235.5	-48.9155	-39.9931	-216.109	-58.2996	-54.3218	-188.35	-65.2225	-43.5866	-239.275	-9.35499	-2.41989	-226.912	-5.51252	24.4922	-212.392	14.7496	2.11221	
5	0.0416667	-162.189	9.05056	-2.81776	-162.296	6.92843	-33.7575	-180.056	-2.79002	-60.2697	-199.869	-20.395	-65.7205	-198.517	29.1087	-62.5886	-210.257	29.0936	-89.2249	-214.379	33.5567	-110.275	-225.333	15.1326	-65.4114	-231.047	16.1164	-91.2979	-240.041	9.10831	-120.105	-227.955	-11.7383	-58.6744	-214.103	-34.3659	-77.6465	-192.233	-46.563	-59.9305	-228.146	-30.1811	-45.4502	-212.455	-45.7758	-58.214	-188.4	-57.6842	-42.9257	-222.107	6.48099	-3.17148	-215.689	2.68313	24.1298	-191.648	23.9054	2.11123	
6	0.05	-143.374	8.80442	-1.62046	-143.161	6.50124	-34.5488	-158.332	-2.10201	-57.0552	-181.596	-13.4415	-65.2227	-179.392	32.3288	-66.9118	-179.306	36.491	-87.4841	-187.592	39.8133	-111.275	-203.648	24.1429	-67.9458	-205.466	26.9452	-91.4683	-213.812	24.8469	-125.171	-206.452	2.29141	-60.1362	-200.525	-21.386	-81.5357	-176.357	-39.8053	-61.988	-215.916	-21.0764	-48.9824	-198.018	-41.5186	-60.8886	-179.256	-53.0973	-44.0823	-203.181	12.8689	-5.58726	-201.995	8.27419	23.968	-175.975	26.486	4.22819	
